# xmcd
#
# Track frame offsets:
#	150
#	9661
#	26790
#	38980
#	50628
#	67837
#	77393
#	90644
#	99051
#	109374
#	119384
#	140746
#
# Disc length: 2074 seconds
#
# Revision: 0
# Processed by: cddbd v1.5.1PL0 Copyright (c) Steve Scherf et al.
# Submitted via: dBpowerAMP V4.0
#
DISCID=9808180c
DTITLE=Hoe - Hoe
DYEAR=1900
DGENRE=Country
TTITLE0=Piece of that Pie
TTITLE1=Whiskey Lake
TTITLE2=In This World
TTITLE3=Walker's Mill
TTITLE4=On Saturday Night
TTITLE5=Everybody Got Some (but me)
TTITLE6=The Broken Heart Maid
TTITLE7=Mary's Room
TTITLE8=When These Hard Times Are Over
TTITLE9=Hockory Hill Hornpipe
TTITLE10=Thief of Fire
TTITLE11=The Taste of Love
EXTD=
EXTT0=
EXTT1=
EXTT2=
EXTT3=
EXTT4=
EXTT5=
EXTT6=
EXTT7=
EXTT8=
EXTT9=
EXTT10=
EXTT11=
PLAYORDER=
